<svg width="104" height="104" viewBox="0 0 104 104" fill="none" xmlns="http://www.w3.org/2000/svg">
<path d="M86.931 36.9912V77.1045C86.931 82.8726 82.2549 87.5485 76.487 87.5485H27.5075C21.7394 87.5485 17.0635 82.8724 17.0635 77.1045V49.0501V36.9912H86.931V36.9912Z" fill="#ED5D5D"/>
<path d="M51.9585 20.5086L67.3657 4.82133C73.1521 -1.0703 83.1706 3.02692 83.1706 11.2848C83.1706 16.3789 79.0409 20.5086 73.9467 20.5086H51.9585" fill="#F6DB55"/>
<path d="M52.0368 20.5086L36.6296 4.82133C30.8432 -1.0703 20.8247 3.02692 20.8247 11.2848C20.8247 16.3789 24.9544 20.5086 30.0486 20.5086H52.0368" fill="#F6DB55"/>
<path d="M28.5749 37.375H12.1875V24.7252C12.1875 22.3964 14.0063 20.5087 16.25 20.5087H87.75C89.9937 20.5087 91.8125 22.3964 91.8125 24.7252V37.375H76.1436H28.5749Z" fill="#EE4848"/>
<path d="M38.5045 20.5129L28.5752 38.9103L36.3459 36.8248L38.4251 44.5972L52.0374 20.5108L67.3328 46.6587L69.4118 38.8862L77.1825 40.9718L65.5703 20.5087L38.5045 20.5129Z" fill="#F6DB55"/>
<path d="M59.3079 36.788H44.6846V87.5476H59.3079V36.788Z" fill="#F6DB55"/>
<path d="M100.869 73.2315C99.5841 71.2876 97.017 70.7772 95.1217 72.0888L78.1305 83.0839L72.331 83.8896L72.1262 81.7678C71.8205 78.6102 69.4604 76.0752 66.4097 75.6305L52.3892 73.9684C49.1547 73.4968 45.4059 71.9117 42.7371 70.3975C37.8718 67.636 32.1942 66.7975 26.7467 67.9208L7.93119 71.7988C7.09789 71.9707 6.5 72.7046 6.5 73.5551V96.5767C6.5 97.9092 7.9013 98.7762 9.09333 98.1813L21.4374 92.0245C22.2042 91.6419 23.0936 91.5896 23.8992 91.8795L47.1413 100.243C48.1502 100.537 49.2107 100.625 50.2473 100.456C50.2533 100.455 50.26 100.454 50.266 100.453L77.0999 94.9519C78.635 94.6373 80.0811 93.9849 81.3329 93.0417L100.193 78.8337C101.753 77.407 102.042 75.0087 100.869 73.2315V73.2315Z" fill="#FCD3AC"/>
<path d="M100.869 73.2317C100.796 73.1211 100.717 73.0164 100.636 72.9148L78.8621 86.5533L50.266 89.9471C50.26 89.9478 50.2533 89.9493 50.2473 89.95C49.2115 90.1189 48.151 90.0308 47.1413 89.737L26.923 82.4615C24.1855 81.4765 21.1639 81.6499 18.5571 82.9428L6.5 88.9209V96.5769C6.5 97.9094 7.9013 98.7763 9.09333 98.1814L21.4374 92.0247C22.2042 91.6421 23.0936 91.5897 23.8992 91.8797L47.1413 100.243C48.1502 100.537 49.2107 100.625 50.2473 100.456C50.2533 100.456 50.26 100.454 50.266 100.453L77.0999 94.9521C78.635 94.6375 80.0811 93.985 81.3329 93.0419L100.193 78.8339C101.753 77.4072 102.042 75.0089 100.869 73.2317V73.2317Z" fill="#EFC09A"/>
<path d="M12.4273 96.5185L18.0474 93.7151L17.7836 69.7683L12.2905 70.9006L12.4273 96.5185Z" fill="#FAB530"/>
<path d="M12.4271 96.5184L18.0473 93.7151L17.9322 83.2521L12.3711 86.0098L12.4271 96.5184Z" fill="#E27F23"/>
</svg>
