<svg width="127" height="108" viewBox="0 0 127 108" fill="none" xmlns="http://www.w3.org/2000/svg">
<ellipse opacity="0.1" cx="63.5793" cy="98.4615" rx="62.8176" ry="9.35366" fill="#393939"/>
<path d="M81.4175 11.7771C81.2487 11.6483 79.6855 10.4855 76.9008 9.36644C73.3134 7.92466 69.1971 7.16254 64.9971 7.16254C60.7971 7.16254 56.6809 7.92466 53.0931 9.36644C50.3087 10.4855 48.7455 11.6483 48.5765 11.7773C47.7286 12.4239 47.231 13.4291 47.231 14.4954V19.8581L50.6489 21.6862L54.0671 19.8581V16.4309C55.943 15.4736 59.6943 13.9985 64.9969 13.9985C70.2997 13.9985 74.0508 15.4736 75.9267 16.4309V19.8578L79.3446 21.686L82.7628 19.8578V14.4954C82.7632 13.4289 82.2656 12.4237 81.4175 11.7771Z" fill="#E8834D"/>
<path d="M47.2349 19.8581V23.6322L50.653 25.4603L54.0712 23.6322V19.8581H47.2349Z" fill="#D66E41"/>
<path d="M82.7668 19.8581H75.9307V23.6322L79.3489 25.4603L82.7668 23.6322V19.8581Z" fill="#D66E41"/>
<path d="M15.6914 61.234V91.5996C15.6914 95.2044 18.6138 98.1268 22.2186 98.1268H107.783C111.387 98.1268 114.31 95.2044 114.31 91.5996V61.234H15.6914Z" fill="#365E7D"/>
<path d="M15.6914 57.46V61.2342C21.114 65.5397 35.4457 73.8977 65.0006 73.8977C94.5555 73.8977 108.887 65.5397 114.31 61.234V57.4598H15.6914V57.46Z" fill="#2B4D66"/>
<path d="M15.4074 55.2863C20.6044 59.5174 34.9162 68.1774 65 68.1774C95.0838 68.1774 109.395 59.5174 114.593 55.2863C116.116 54.046 117 50.3593 117 48.3948V30.1593C117 26.5544 114.078 23.6321 110.473 23.6321H19.5272C15.9224 23.6321 13 26.5544 13 30.1593V48.3948C13 50.3593 13.884 54.046 15.4074 55.2863Z" fill="#407093"/>
<path d="M114.593 53.4583C109.396 57.6894 95.0838 66.3494 65 66.3494C34.9162 66.3494 20.6046 57.6891 15.4074 53.4583C13.884 52.218 13 50.3594 13 48.395V52.1692C13 54.1336 13.884 55.9922 15.4074 57.2325C20.6044 61.4636 34.9162 70.1236 65 70.1236C95.0838 70.1236 109.395 61.4636 114.593 57.2325C116.116 55.9922 117 54.1336 117 52.1692V48.395C117 50.3594 116.116 52.218 114.593 53.4583Z" fill="#365E7D"/>
<path d="M64.9993 76.405C68.3761 76.405 71.1134 73.8977 71.1134 68.4628V64.7558C71.1134 63.5541 70.1392 62.5801 68.9377 62.5801H61.0609C59.8592 62.5801 58.8853 63.5543 58.8853 64.7558V68.4635C58.8851 73.8977 61.6226 76.405 64.9993 76.405Z" fill="#FFE27A"/>
<path d="M64.9993 74.5769C61.6226 74.5769 58.8853 71.8396 58.8853 68.4628V72.2371C58.8853 75.6138 61.6226 78.3512 64.9993 78.3512C68.3761 78.3512 71.1134 75.6138 71.1134 72.2371V68.4628C71.1134 71.8394 68.3761 74.5769 64.9993 74.5769Z" fill="#F9CF58"/>
</svg>
