<svg width="104" height="104" viewBox="0 0 104 104" fill="none" xmlns="http://www.w3.org/2000/svg">
<path d="M72.0153 13.057L65.7618 7.0224C62.0873 3.47645 57.2512 1.52368 52.145 1.52368C47.0388 1.52368 42.2028 3.47645 38.5283 7.0224L32.2748 13.057L24.4595 20.6662L35.3289 21.452L41.0519 13.0573L42.7605 11.4084C48.0227 6.33044 56.2669 6.33044 61.5298 11.4084L63.2384 13.0573L69.7703 20.9283L75.9253 17.7854L72.0153 13.057Z" fill="#CEDAE0"/>
<path d="M88.3276 89.9293C88.5836 96.7819 83.0963 102.476 76.2397 102.476H28.0502C21.1936 102.476 15.7062 96.7819 15.9622 89.9293L18.4001 24.7009C18.6419 18.2018 23.983 13.0558 30.4861 13.0558H73.8038C80.3069 13.0558 85.648 18.2018 85.8897 24.7009L88.3276 89.9293Z" fill="#7BACDF"/>
<path d="M85.8036 76.7985L85.0712 57.1922C84.9509 53.9823 82.3407 51.4678 79.1286 51.4678H50.3143C46.7468 51.4678 43.893 48.5051 44.0263 44.9403L44.7826 24.7009C45.0244 18.2018 50.3655 13.0558 56.8686 13.0558H30.4861C23.983 13.0558 18.6419 18.2018 18.4001 24.7009L15.9622 89.9293C15.7062 96.7819 21.1936 102.476 28.0502 102.476H54.4329C52.3558 102.476 50.4045 101.954 48.7004 101.034C47.6098 100.446 48.0249 98.7916 49.2639 98.7916H74.1977C79.7984 98.7916 84.3386 94.2513 84.3386 88.6506V82.6489C85.3684 80.8969 85.8818 78.8868 85.8036 76.7985V76.7985Z" fill="#5F99D7"/>
<path d="M80.2752 88.6507C80.2752 92.0073 77.5541 94.7284 74.1975 94.7284H30.0587C26.7021 94.7284 23.981 92.0073 23.981 88.6507V68.5712H80.2752V88.6507Z" fill="#CEDAE0"/>
<path d="M79.1285 55.5309C80.1414 55.5309 80.9729 56.3319 81.0107 57.3441L81.7431 76.9502C81.8855 80.7615 78.8343 83.9289 75.0204 83.9289H29.269C25.4551 83.9289 22.4039 80.7617 22.5463 76.9502L23.2787 57.3441C23.3165 56.3319 24.148 55.5309 25.161 55.5309H79.1285Z" fill="#ADB9BF"/>
<path d="M39.1778 94.102L36.1889 95.8766C36.0339 95.9687 35.8411 95.9687 35.6861 95.8766L32.6972 94.102C32.5477 94.0132 32.4561 93.8523 32.4561 93.6786V54.4941C32.4561 53.8785 32.955 53.3795 33.5706 53.3795H38.3044C38.92 53.3795 39.4189 53.8785 39.4189 54.4941V93.6786C39.4189 93.8523 39.3273 94.0135 39.1778 94.102V94.102Z" fill="#667881"/>
<path d="M65.3351 94.102L68.324 95.8766C68.479 95.9687 68.6718 95.9687 68.8268 95.8766L71.8157 94.102C71.9652 94.0132 72.0566 93.8523 72.0566 93.6786V54.4941C72.0566 53.8785 71.5577 53.3795 70.9421 53.3795H66.2083C65.5927 53.3795 65.0938 53.8785 65.0938 54.4941V93.6786C65.094 93.8523 65.1856 94.0135 65.3351 94.102Z" fill="#667881"/>
<path d="M75.3191 47.1168H28.9709C28.0965 47.1168 27.3877 46.408 27.3877 45.5336V40.2787C27.3877 39.4043 28.0965 38.6954 28.9709 38.6954H75.3191C76.1935 38.6954 76.9024 39.4043 76.9024 40.2787V45.5336C76.9024 46.408 76.1935 47.1168 75.3191 47.1168V47.1168Z" fill="#EAF0F3"/>
<path d="M44.3279 47.1167C44.1063 46.4337 43.9978 45.7009 44.0263 44.94L44.2597 38.6953H28.9709C28.0965 38.6953 27.3877 39.4041 27.3877 40.2785V45.5335C27.3877 46.4079 28.0965 47.1167 28.9709 47.1167H44.3279Z" fill="#CEDAE0"/>
</svg>
